The Deep Blue Sea 2011 SCR XViD DTRG

Format : AVI
Format/Info : Audio Video Interleave
File size : 1.22 GiB
Duration : 1h 34mn
Overall bit rate : 1 850 Kbps
Writing library : VirtualDub build 32842/release

Video
ID : 0
Format : MPEG-4 Visual
Format profile : Advanced Simple@L5
Format settings, BVOP : 1
Format settings, QPel : No
Format settings, GMC : No warppoints
Format settings, Matrix : Default (H.263)
Muxing mode : Packed bitstream
Codec ID : XVID
Codec ID/Hint : XviD
Duration : 1h 34mn
Bit rate : 1 712 Kbps
Width : 720 pixels
Height : 400 pixels
Display aspect ratio : 16:9
Frame rate : 25.000 fps
Color space : YUV
Chroma subsampling : 4:2:0
Bit depth : 8 bits
Scan type : Progressive
Compression mode : Lossy
Bits/(Pixel*Frame) : 0.238
Stream size : 1.13 GiB (93%)
Writing library : XviD 64

Audio
ID : 1
Format : AC-3
Format/Info : Audio Coding 3
Mode extension : CM (complete main)
Codec ID : 2000
Duration : 1h 34mn
Bit rate mode : Constant
Bit rate : 128 Kbps
Channel(s) : 2 channels
Channel positions : Front: L R
Sampling rate : 48.0 KHz
Bit depth : 16 bits
Compression mode : Lossy
Stream size : 86.4 MiB (7%)
Alignment : Aligned on interleaves
Interleave, duration : 40 ms (1.00 video frame)
Interleave, preload duration : 512 ms

 
http://www.imdb.com/title/tt1700844/


Set 'around 1950', The Deep Blue Sea tells the story of Hester Collyer, the younger wife of High Court judge Sir William Collyer, who has embarked on a passionate affair with Freddie Page, a handsome young RAF pilot troubled by his memories of the war.

The majority of the film takes place during one day in Hester's flat, a day on which she has decided to commit suicide. Her attempt fails and as she recovers, the story of her affair and her married life is played out in a mosaic of short and sporadic flashbacks. We soon discover the constraints of Hester's comfortable marriage, which is affectionate but without sexual passion.

As Hester's affair is discovered she leaves her life of comparative luxury and moves into a small dingy London flat with Freddie. Hester's new lover has 
awakened her sexuality, but the reckless, thrill-seeking Freddie can never 
give her the love and stability that her husband gave. Yet to return to a life without passion would be unbearable. The film takes its title from h


Source Used

Thanks mate :-)


Nice little scr here for all to enjoy ...Typical scr quality just cropped ,
resized and few more blah blah blah filters.


Poster:

 
http://i.imgur.com/OOJEz.jpg


Screens:

 
http://i.imgur.com/RcBRt.png

 
http://i.imgur.com/9qPxZ.png


ENJOY!